<svg xmlns="http://www.w3.org/2000/svg" xmlns:xlink="http://www.w3.org/1999/xlink" width="500" zoomAndPan="magnify" viewBox="0 0 375 374.999991" height="500" preserveAspectRatio="xMidYMid meet" version="1.0"><defs><g><g id="id1"/><g id="id2"/></g></defs><g fill="rgb(12.159729%, 12.939453%, 13.328552%)" fill-opacity="1"><g transform="translate(107.067494, 236.98768)"><g><path d="M 6.03125 0 L 6.03125 -1.40625 L 9.828125 -1.40625 C 13.472656 -1.40625 16.019531 -2.175781 17.46875 -3.71875 C 18.925781 -5.257812 19.65625 -8.1875 19.65625 -12.5 L 19.65625 -88.015625 C 19.65625 -92.128906 18.925781 -94.957031 17.46875 -96.5 C 16.019531 -98.050781 13.472656 -98.828125 9.828125 -98.828125 L 6.03125 -98.828125 L 6.03125 -100.234375 L 39.578125 -100.234375 C 51.554688 -100.234375 60.332031 -98.125 65.90625 -93.90625 C 71.476562 -89.695312 74.265625 -83.195312 74.265625 -74.40625 C 74.265625 -68.96875 73.207031 -64.425781 71.09375 -60.78125 C 68.988281 -57.132812 66.25 -54.234375 62.875 -52.078125 C 59.507812 -49.921875 55.863281 -48.332031 51.9375 -47.3125 L 73.5625 -14.453125 C 77.019531 -9.210938 79.753906 -5.726562 81.765625 -4 C 83.773438 -2.269531 85.859375 -1.40625 88.015625 -1.40625 L 89 -1.40625 L 89 0 L 87.59375 0 C 82.726562 0 78.960938 -0.328125 76.296875 -0.984375 C 73.628906 -1.640625 71.378906 -2.878906 69.546875 -4.703125 C 67.722656 -6.523438 65.738281 -9.125 63.59375 -12.5 L 41.6875 -46.46875 L 29.203125 -46.46875 L 29.203125 -12.5 C 29.203125 -8.1875 29.925781 -5.257812 31.375 -3.71875 C 32.820312 -2.175781 35.375 -1.40625 39.03125 -1.40625 L 42.671875 -1.40625 L 42.671875 0 Z M 29.203125 -47.875 L 41.125 -47.875 C 48.613281 -47.875 54.347656 -49.953125 58.328125 -54.109375 C 62.304688 -58.273438 64.296875 -64.804688 64.296875 -73.703125 C 64.296875 -82.398438 62.515625 -88.757812 58.953125 -92.78125 C 55.398438 -96.8125 49.082031 -98.828125 40 -98.828125 L 29.203125 -98.828125 Z M 29.203125 -47.875 "/></g></g></g><g fill="rgb(12.159729%, 12.939453%, 13.328552%)" fill-opacity="1"><g transform="translate(195.077692, 236.98768)"><g><path d="M 36.21875 1.40625 C 30.226562 1.40625 25.148438 0.515625 20.984375 -1.265625 C 16.816406 -3.046875 13.679688 -5.382812 11.578125 -8.28125 C 9.472656 -11.1875 8.421875 -14.367188 8.421875 -17.828125 C 8.421875 -23.066406 10.804688 -25.6875 15.578125 -25.6875 C 15.671875 -8.5625 22.738281 0 36.78125 0 C 43.332031 0 48.382812 -1.894531 51.9375 -5.6875 C 55.488281 -9.476562 57.265625 -14.925781 57.265625 -22.03125 C 57.265625 -26.0625 56.492188 -29.429688 54.953125 -32.140625 C 53.410156 -34.859375 50.976562 -37.382812 47.65625 -39.71875 C 44.332031 -42.0625 39.957031 -44.59375 34.53125 -47.3125 C 30.039062 -49.644531 26.015625 -52.023438 22.453125 -54.453125 C 18.898438 -56.890625 16.09375 -59.882812 14.03125 -63.4375 C 11.976562 -67 10.953125 -71.539062 10.953125 -77.0625 C 10.953125 -84.550781 13.382812 -90.515625 18.25 -94.953125 C 23.113281 -99.398438 29.710938 -101.625 38.046875 -101.625 C 43.003906 -101.625 47.351562 -100.898438 51.09375 -99.453125 C 54.84375 -98.003906 57.769531 -96.085938 59.875 -93.703125 C 61.976562 -91.316406 63.03125 -88.671875 63.03125 -85.765625 C 63.03125 -83.523438 62.347656 -81.769531 60.984375 -80.5 C 59.628906 -79.238281 57.738281 -78.609375 55.3125 -78.609375 C 55.3125 -86.097656 53.90625 -91.570312 51.09375 -95.03125 C 48.289062 -98.5 43.894531 -100.234375 37.90625 -100.234375 C 31.914062 -100.234375 27.28125 -98.40625 24 -94.75 C 20.726562 -91.101562 19.09375 -86.003906 19.09375 -79.453125 C 19.09375 -75.148438 19.863281 -71.617188 21.40625 -68.859375 C 22.945312 -66.097656 25.285156 -63.6875 28.421875 -61.625 C 31.554688 -59.5625 35.414062 -57.363281 40 -55.03125 C 44.5 -52.6875 48.6875 -50.296875 52.5625 -47.859375 C 56.445312 -45.429688 59.609375 -42.4375 62.046875 -38.875 C 64.484375 -35.320312 65.703125 -30.738281 65.703125 -25.125 C 65.703125 -17.164062 63.148438 -10.753906 58.046875 -5.890625 C 52.941406 -1.023438 45.664062 1.40625 36.21875 1.40625 Z M 36.21875 1.40625 "/></g></g></g><path fill="rgb(98.429871%, 99.21875%, 98.039246%)" d="M 91.148438 171.171875 L 283.867188 171.171875 L 283.867188 204.921875 L 91.148438 204.921875 L 91.148438 171.171875 " fill-opacity="1" fill-rule="nonzero"/><g fill="rgb(12.159729%, 12.939453%, 13.328552%)" fill-opacity="1"><g transform="translate(129.787848, 193.41047)"><g><path d="M 0.5625 0 L 0.5625 -0.125 L 0.90625 -0.125 C 1.25 -0.125 1.488281 -0.195312 1.625 -0.34375 C 1.757812 -0.488281 1.828125 -0.757812 1.828125 -1.15625 L 1.828125 -8.171875 C 1.828125 -8.554688 1.757812 -8.816406 1.625 -8.953125 C 1.488281 -9.097656 1.25 -9.171875 0.90625 -9.171875 L 0.5625 -9.171875 L 0.5625 -9.296875 L 3.671875 -9.296875 C 4.785156 -9.296875 5.597656 -9.097656 6.109375 -8.703125 C 6.628906 -8.316406 6.890625 -7.71875 6.890625 -6.90625 C 6.890625 -6.40625 6.789062 -5.984375 6.59375 -5.640625 C 6.40625 -5.304688 6.15625 -5.035156 5.84375 -4.828125 C 5.53125 -4.628906 5.191406 -4.484375 4.828125 -4.390625 L 6.828125 -1.34375 C 7.148438 -0.851562 7.40625 -0.523438 7.59375 -0.359375 C 7.78125 -0.203125 7.972656 -0.125 8.171875 -0.125 L 8.265625 -0.125 L 8.265625 0 L 8.125 0 C 7.675781 0 7.328125 -0.03125 7.078125 -0.09375 C 6.835938 -0.15625 6.628906 -0.269531 6.453125 -0.4375 C 6.285156 -0.601562 6.101562 -0.84375 5.90625 -1.15625 L 3.875 -4.3125 L 2.703125 -4.3125 L 2.703125 -1.15625 C 2.703125 -0.757812 2.769531 -0.488281 2.90625 -0.34375 C 3.039062 -0.195312 3.28125 -0.125 3.625 -0.125 L 3.96875 -0.125 L 3.96875 0 Z M 2.703125 -4.4375 L 3.8125 -4.4375 C 4.507812 -4.4375 5.039062 -4.628906 5.40625 -5.015625 C 5.78125 -5.410156 5.96875 -6.019531 5.96875 -6.84375 C 5.96875 -7.644531 5.800781 -8.234375 5.46875 -8.609375 C 5.144531 -8.984375 4.5625 -9.171875 3.71875 -9.171875 L 2.703125 -9.171875 Z M 2.703125 -4.4375 "/></g></g></g><g fill="rgb(12.159729%, 12.939453%, 13.328552%)" fill-opacity="1"><g transform="translate(142.847518, 193.41047)"><g><path d="M 2.078125 0 L 2.078125 -0.125 L 2.53125 -0.125 C 2.863281 -0.125 3.097656 -0.195312 3.234375 -0.34375 C 3.367188 -0.488281 3.4375 -0.757812 3.4375 -1.15625 L 3.4375 -4.328125 L 1.03125 -8.546875 C 0.882812 -8.804688 0.753906 -8.972656 0.640625 -9.046875 C 0.523438 -9.128906 0.34375 -9.171875 0.09375 -9.171875 L -0.109375 -9.171875 L -0.109375 -9.296875 L 2.90625 -9.296875 L 2.90625 -9.171875 L 2.46875 -9.171875 C 2.257812 -9.171875 2.113281 -9.144531 2.03125 -9.09375 C 1.957031 -9.050781 1.921875 -8.984375 1.921875 -8.890625 C 1.921875 -8.796875 1.941406 -8.691406 1.984375 -8.578125 C 2.035156 -8.472656 2.101562 -8.34375 2.1875 -8.1875 L 3.3125 -6.203125 C 3.488281 -5.890625 3.65625 -5.582031 3.8125 -5.28125 C 3.976562 -4.976562 4.125 -4.703125 4.25 -4.453125 C 4.34375 -4.648438 4.441406 -4.859375 4.546875 -5.078125 C 4.660156 -5.304688 4.800781 -5.566406 4.96875 -5.859375 L 6.078125 -8.046875 C 6.160156 -8.210938 6.226562 -8.363281 6.28125 -8.5 C 6.34375 -8.632812 6.375 -8.742188 6.375 -8.828125 C 6.375 -8.953125 6.320312 -9.039062 6.21875 -9.09375 C 6.125 -9.144531 5.945312 -9.171875 5.6875 -9.171875 L 5.15625 -9.171875 L 5.15625 -9.296875 L 7.734375 -9.296875 L 7.734375 -9.171875 L 7.40625 -9.171875 C 7.15625 -9.171875 6.960938 -9.117188 6.828125 -9.015625 C 6.703125 -8.910156 6.554688 -8.691406 6.390625 -8.359375 L 4.328125 -4.328125 L 4.328125 -1.15625 C 4.328125 -0.757812 4.390625 -0.488281 4.515625 -0.34375 C 4.648438 -0.195312 4.890625 -0.125 5.234375 -0.125 L 5.6875 -0.125 L 5.6875 0 Z M 2.078125 0 "/></g></g></g><g fill="rgb(12.159729%, 12.939453%, 13.328552%)" fill-opacity="1"><g transform="translate(155.37291, 193.41047)"><g><path d="M -0.03125 0 L -0.03125 -0.125 L 0.296875 -0.125 C 0.585938 -0.125 0.789062 -0.175781 0.90625 -0.28125 C 1.03125 -0.394531 1.15625 -0.625 1.28125 -0.96875 L 4.171875 -9.296875 L 4.59375 -9.296875 L 7.734375 -0.796875 C 7.828125 -0.523438 7.921875 -0.34375 8.015625 -0.25 C 8.117188 -0.164062 8.285156 -0.125 8.515625 -0.125 L 8.734375 -0.125 L 8.734375 0 L 5.546875 0 L 5.546875 -0.125 L 5.9375 -0.125 C 6.269531 -0.125 6.492188 -0.160156 6.609375 -0.234375 C 6.722656 -0.304688 6.78125 -0.425781 6.78125 -0.59375 C 6.78125 -0.695312 6.753906 -0.835938 6.703125 -1.015625 C 6.648438 -1.203125 6.601562 -1.359375 6.5625 -1.484375 L 5.859375 -3.375 L 2.265625 -3.375 L 1.609375 -1.53125 C 1.578125 -1.414062 1.53125 -1.265625 1.46875 -1.078125 C 1.414062 -0.898438 1.390625 -0.753906 1.390625 -0.640625 C 1.390625 -0.453125 1.460938 -0.316406 1.609375 -0.234375 C 1.753906 -0.160156 2.03125 -0.125 2.4375 -0.125 L 2.9375 -0.125 L 2.9375 0 Z M 2.3125 -3.5 L 5.828125 -3.5 L 4.828125 -6.296875 C 4.679688 -6.691406 4.535156 -7.09375 4.390625 -7.5 C 4.253906 -7.914062 4.140625 -8.28125 4.046875 -8.59375 C 3.953125 -8.300781 3.835938 -7.960938 3.703125 -7.578125 C 3.566406 -7.203125 3.441406 -6.832031 3.328125 -6.46875 Z M 2.3125 -3.5 "/></g></g></g><g fill="rgb(12.159729%, 12.939453%, 13.328552%)" fill-opacity="1"><g transform="translate(169.097173, 193.41047)"><g><path d="M 0.5625 0 L 0.5625 -0.125 L 1.03125 -0.125 C 1.363281 -0.125 1.597656 -0.195312 1.734375 -0.34375 C 1.867188 -0.488281 1.9375 -0.757812 1.9375 -1.15625 L 1.9375 -8.171875 C 1.9375 -8.554688 1.867188 -8.816406 1.734375 -8.953125 C 1.597656 -9.097656 1.363281 -9.171875 1.03125 -9.171875 L 0.5625 -9.171875 L 0.5625 -9.296875 L 2.578125 -9.296875 L 7.8125 -1.34375 L 7.8125 -8.140625 C 7.8125 -8.546875 7.742188 -8.816406 7.609375 -8.953125 C 7.484375 -9.097656 7.242188 -9.171875 6.890625 -9.171875 L 6.453125 -9.171875 L 6.453125 -9.296875 L 9.296875 -9.296875 L 9.296875 -9.171875 L 8.859375 -9.171875 C 8.515625 -9.171875 8.273438 -9.097656 8.140625 -8.953125 C 8.003906 -8.816406 7.9375 -8.546875 7.9375 -8.140625 L 7.9375 0 L 7.671875 0 L 2.078125 -8.5 L 2.078125 -1.15625 C 2.078125 -0.757812 2.140625 -0.488281 2.265625 -0.34375 C 2.398438 -0.195312 2.640625 -0.125 2.984375 -0.125 L 3.421875 -0.125 L 3.421875 0 Z M 0.5625 0 "/></g></g></g><g fill="rgb(12.159729%, 12.939453%, 13.328552%)" fill-opacity="1"><g transform="translate(183.733622, 193.41047)"><g/></g></g><g fill="rgb(12.159729%, 12.939453%, 13.328552%)" fill-opacity="1"><g transform="translate(191.554737, 193.41047)"><g><path d="M 3.359375 0.125 C 2.804688 0.125 2.335938 0.046875 1.953125 -0.109375 C 1.566406 -0.273438 1.273438 -0.492188 1.078125 -0.765625 C 0.878906 -1.035156 0.78125 -1.332031 0.78125 -1.65625 C 0.78125 -2.144531 1.003906 -2.390625 1.453125 -2.390625 C 1.453125 -0.796875 2.109375 0 3.421875 0 C 4.023438 0 4.488281 -0.175781 4.8125 -0.53125 C 5.144531 -0.882812 5.3125 -1.390625 5.3125 -2.046875 C 5.3125 -2.421875 5.238281 -2.734375 5.09375 -2.984375 C 4.957031 -3.234375 4.734375 -3.46875 4.421875 -3.6875 C 4.117188 -3.90625 3.710938 -4.140625 3.203125 -4.390625 C 2.785156 -4.609375 2.410156 -4.828125 2.078125 -5.046875 C 1.753906 -5.273438 1.492188 -5.554688 1.296875 -5.890625 C 1.109375 -6.222656 1.015625 -6.644531 1.015625 -7.15625 C 1.015625 -7.851562 1.238281 -8.40625 1.6875 -8.8125 C 2.144531 -9.226562 2.757812 -9.4375 3.53125 -9.4375 C 3.988281 -9.4375 4.390625 -9.367188 4.734375 -9.234375 C 5.085938 -9.097656 5.359375 -8.914062 5.546875 -8.6875 C 5.742188 -8.46875 5.84375 -8.226562 5.84375 -7.96875 C 5.84375 -7.757812 5.78125 -7.59375 5.65625 -7.46875 C 5.53125 -7.351562 5.359375 -7.296875 5.140625 -7.296875 C 5.140625 -7.992188 5.007812 -8.5 4.75 -8.8125 C 4.488281 -9.132812 4.078125 -9.296875 3.515625 -9.296875 C 2.960938 -9.296875 2.53125 -9.125 2.21875 -8.78125 C 1.914062 -8.445312 1.765625 -7.976562 1.765625 -7.375 C 1.765625 -6.976562 1.835938 -6.648438 1.984375 -6.390625 C 2.128906 -6.128906 2.347656 -5.90625 2.640625 -5.71875 C 2.929688 -5.53125 3.289062 -5.328125 3.71875 -5.109375 C 4.132812 -4.890625 4.519531 -4.664062 4.875 -4.4375 C 5.238281 -4.21875 5.53125 -3.941406 5.75 -3.609375 C 5.976562 -3.273438 6.09375 -2.847656 6.09375 -2.328125 C 6.09375 -1.585938 5.851562 -0.992188 5.375 -0.546875 C 4.90625 -0.0976562 4.234375 0.125 3.359375 0.125 Z M 3.359375 0.125 "/></g></g></g><g fill="rgb(12.159729%, 12.939453%, 13.328552%)" fill-opacity="1"><g transform="translate(203.207036, 193.41047)"><g><path d="M 0.5625 0 L 0.5625 -0.125 L 1.09375 -0.125 C 1.4375 -0.125 1.671875 -0.195312 1.796875 -0.34375 C 1.929688 -0.488281 2 -0.757812 2 -1.15625 L 2 -8.171875 C 2 -8.554688 1.929688 -8.816406 1.796875 -8.953125 C 1.671875 -9.097656 1.4375 -9.171875 1.09375 -9.171875 L 0.5625 -9.171875 L 0.5625 -9.296875 L 2.703125 -9.296875 L 6.125 -0.984375 L 9.28125 -9.296875 L 11.265625 -9.296875 L 11.265625 -9.171875 L 10.953125 -9.171875 C 10.597656 -9.171875 10.351562 -9.097656 10.21875 -8.953125 C 10.09375 -8.816406 10.03125 -8.546875 10.03125 -8.140625 L 10.03125 -1.15625 C 10.03125 -0.757812 10.09375 -0.488281 10.21875 -0.34375 C 10.351562 -0.195312 10.597656 -0.125 10.953125 -0.125 L 11.265625 -0.125 L 11.265625 0 L 7.984375 0 L 7.984375 -0.125 L 8.34375 -0.125 C 8.632812 -0.125 8.84375 -0.195312 8.96875 -0.34375 C 9.101562 -0.488281 9.171875 -0.757812 9.171875 -1.15625 L 9.171875 -8.671875 L 5.90625 0 L 5.625 0 L 2.140625 -8.53125 L 2.140625 -1.15625 C 2.140625 -0.757812 2.207031 -0.488281 2.34375 -0.34375 C 2.476562 -0.195312 2.71875 -0.125 3.0625 -0.125 L 3.375 -0.125 L 3.375 0 Z M 0.5625 0 "/></g></g></g><g fill="rgb(12.159729%, 12.939453%, 13.328552%)" fill-opacity="1"><g transform="translate(220.136984, 193.41047)"><g><path d="M -0.03125 0 L -0.03125 -0.125 L 0.296875 -0.125 C 0.585938 -0.125 0.789062 -0.175781 0.90625 -0.28125 C 1.03125 -0.394531 1.15625 -0.625 1.28125 -0.96875 L 4.171875 -9.296875 L 4.59375 -9.296875 L 7.734375 -0.796875 C 7.828125 -0.523438 7.921875 -0.34375 8.015625 -0.25 C 8.117188 -0.164062 8.285156 -0.125 8.515625 -0.125 L 8.734375 -0.125 L 8.734375 0 L 5.546875 0 L 5.546875 -0.125 L 5.9375 -0.125 C 6.269531 -0.125 6.492188 -0.160156 6.609375 -0.234375 C 6.722656 -0.304688 6.78125 -0.425781 6.78125 -0.59375 C 6.78125 -0.695312 6.753906 -0.835938 6.703125 -1.015625 C 6.648438 -1.203125 6.601562 -1.359375 6.5625 -1.484375 L 5.859375 -3.375 L 2.265625 -3.375 L 1.609375 -1.53125 C 1.578125 -1.414062 1.53125 -1.265625 1.46875 -1.078125 C 1.414062 -0.898438 1.390625 -0.753906 1.390625 -0.640625 C 1.390625 -0.453125 1.460938 -0.316406 1.609375 -0.234375 C 1.753906 -0.160156 2.03125 -0.125 2.4375 -0.125 L 2.9375 -0.125 L 2.9375 0 Z M 2.3125 -3.5 L 5.828125 -3.5 L 4.828125 -6.296875 C 4.679688 -6.691406 4.535156 -7.09375 4.390625 -7.5 C 4.253906 -7.914062 4.140625 -8.28125 4.046875 -8.59375 C 3.953125 -8.300781 3.835938 -7.960938 3.703125 -7.578125 C 3.566406 -7.203125 3.441406 -6.832031 3.328125 -6.46875 Z M 2.3125 -3.5 "/></g></g></g><g fill="rgb(12.159729%, 12.939453%, 13.328552%)" fill-opacity="1"><g transform="translate(233.861247, 193.41047)"><g><path d="M 0.5625 0 L 0.5625 -0.125 L 0.90625 -0.125 C 1.25 -0.125 1.488281 -0.195312 1.625 -0.34375 C 1.757812 -0.488281 1.828125 -0.757812 1.828125 -1.15625 L 1.828125 -8.171875 C 1.828125 -8.554688 1.757812 -8.816406 1.625 -8.953125 C 1.488281 -9.097656 1.25 -9.171875 0.90625 -9.171875 L 0.5625 -9.171875 L 0.5625 -9.296875 L 3.96875 -9.296875 L 3.96875 -9.171875 L 3.625 -9.171875 C 3.28125 -9.171875 3.039062 -9.097656 2.90625 -8.953125 C 2.769531 -8.816406 2.703125 -8.546875 2.703125 -8.140625 L 2.703125 -0.125 L 5.6875 -0.125 C 6.03125 -0.125 6.300781 -0.171875 6.5 -0.265625 C 6.695312 -0.367188 6.835938 -0.539062 6.921875 -0.78125 C 7.015625 -1.019531 7.078125 -1.347656 7.109375 -1.765625 L 7.140625 -2.734375 L 7.265625 -2.734375 L 7.1875 0 Z M 0.5625 0 "/></g></g></g><g fill="rgb(12.159729%, 12.939453%, 13.328552%)" fill-opacity="1"><g transform="translate(246.634237, 193.41047)"><g><path d="M 0.5625 0 L 0.5625 -0.125 L 0.90625 -0.125 C 1.25 -0.125 1.488281 -0.195312 1.625 -0.34375 C 1.757812 -0.488281 1.828125 -0.757812 1.828125 -1.15625 L 1.828125 -8.171875 C 1.828125 -8.554688 1.757812 -8.816406 1.625 -8.953125 C 1.488281 -9.097656 1.25 -9.171875 0.90625 -9.171875 L 0.5625 -9.171875 L 0.5625 -9.296875 L 3.96875 -9.296875 L 3.96875 -9.171875 L 3.625 -9.171875 C 3.28125 -9.171875 3.039062 -9.097656 2.90625 -8.953125 C 2.769531 -8.816406 2.703125 -8.546875 2.703125 -8.140625 L 2.703125 -0.125 L 5.6875 -0.125 C 6.03125 -0.125 6.300781 -0.171875 6.5 -0.265625 C 6.695312 -0.367188 6.835938 -0.539062 6.921875 -0.78125 C 7.015625 -1.019531 7.078125 -1.347656 7.109375 -1.765625 L 7.140625 -2.734375 L 7.265625 -2.734375 L 7.1875 0 Z M 0.5625 0 "/></g></g></g></svg>